<mxfile host="app.diagrams.net" modified="2023-09-28T02:55:26.749Z" agent="Mozilla/5.0 (Windows NT 10.0; Win64; x64) AppleWebKit/537.36 (KHTML, like Gecko) Chrome/117.0.0.0 Safari/537.36" etag="d0l8fYCftAl02Mg8nuCl" version="21.8.2" type="google">
  <diagram name="Página-1" id="RKIBgOQJoc4iMdahwjWs">
    <mxGraphModel grid="1" page="1" gridSize="10" guides="1" tooltips="1" connect="1" arrows="1" fold="1" pageScale="1" pageWidth="827" pageHeight="1169" math="0" shadow="0">
      <root>
        <mxCell id="0" />
        <mxCell id="1" parent="0" />
        <mxCell id="Ek37SBweynZgZIBodVjF-1" value="Funcionário&lt;br&gt;" style="shape=umlActor;verticalLabelPosition=bottom;verticalAlign=top;html=1;" vertex="1" parent="1">
          <mxGeometry x="30" y="310" width="60" height="120" as="geometry" />
        </mxCell>
        <mxCell id="eRbQ8-fx1asFBcGVNISz-1" value="LOGIN OU CADASTRO&lt;br&gt;" style="ellipse;whiteSpace=wrap;html=1;fillColor=#f5f5f5;fontColor=#333333;strokeColor=#666666;" vertex="1" parent="1">
          <mxGeometry x="190" y="335" width="140" height="70" as="geometry" />
        </mxCell>
        <mxCell id="eRbQ8-fx1asFBcGVNISz-3" value="SISTEMA DE ESTOQUE" style="ellipse;whiteSpace=wrap;html=1;fillColor=#f5f5f5;fontColor=#333333;strokeColor=#666666;" vertex="1" parent="1">
          <mxGeometry x="330" y="180" width="140" height="70" as="geometry" />
        </mxCell>
        <mxCell id="eRbQ8-fx1asFBcGVNISz-4" value="REGISTRAR NOVO PRODUTO&lt;br&gt;" style="ellipse;whiteSpace=wrap;html=1;fillColor=#f5f5f5;fontColor=#333333;strokeColor=#666666;" vertex="1" parent="1">
          <mxGeometry x="330" y="50" width="140" height="70" as="geometry" />
        </mxCell>
        <mxCell id="eRbQ8-fx1asFBcGVNISz-16" value="" style="edgeStyle=orthogonalEdgeStyle;rounded=0;orthogonalLoop=1;jettySize=auto;html=1;" edge="1" parent="1" source="eRbQ8-fx1asFBcGVNISz-5" target="eRbQ8-fx1asFBcGVNISz-4">
          <mxGeometry relative="1" as="geometry" />
        </mxCell>
        <mxCell id="eRbQ8-fx1asFBcGVNISz-5" value="PREENCHER DADOS DO PRODUTO&lt;br&gt;" style="ellipse;whiteSpace=wrap;html=1;" vertex="1" parent="1">
          <mxGeometry x="560" y="50" width="140" height="70" as="geometry" />
        </mxCell>
        <mxCell id="eRbQ8-fx1asFBcGVNISz-6" value="CONFIRMAR DADOS DOS PRODUTOS" style="ellipse;whiteSpace=wrap;html=1;" vertex="1" parent="1">
          <mxGeometry x="820" y="50" width="140" height="70" as="geometry" />
        </mxCell>
        <mxCell id="eRbQ8-fx1asFBcGVNISz-7" value="LISTA DE ESTOQUE REGISTRADOS&lt;br&gt;" style="ellipse;whiteSpace=wrap;html=1;fillColor=#f5f5f5;fontColor=#333333;strokeColor=#666666;" vertex="1" parent="1">
          <mxGeometry x="730" y="180" width="140" height="70" as="geometry" />
        </mxCell>
        <mxCell id="eRbQ8-fx1asFBcGVNISz-9" value="&amp;lt;&amp;lt;include&amp;gt;&amp;gt;" style="html=1;verticalAlign=bottom;labelBackgroundColor=none;endArrow=open;endFill=0;dashed=1;rounded=0;" edge="1" parent="1" source="eRbQ8-fx1asFBcGVNISz-1" target="eRbQ8-fx1asFBcGVNISz-3">
          <mxGeometry width="160" relative="1" as="geometry">
            <mxPoint x="270" y="370" as="sourcePoint" />
            <mxPoint x="430" y="370" as="targetPoint" />
          </mxGeometry>
        </mxCell>
        <mxCell id="eRbQ8-fx1asFBcGVNISz-12" value="&amp;lt;&amp;lt;include&amp;gt;&amp;gt;" style="html=1;verticalAlign=bottom;labelBackgroundColor=none;endArrow=open;endFill=0;dashed=1;rounded=0;exitX=1;exitY=0.5;exitDx=0;exitDy=0;" edge="1" parent="1" source="eRbQ8-fx1asFBcGVNISz-3" target="eRbQ8-fx1asFBcGVNISz-7">
          <mxGeometry width="160" relative="1" as="geometry">
            <mxPoint x="450" y="230" as="sourcePoint" />
            <mxPoint x="610" y="230" as="targetPoint" />
          </mxGeometry>
        </mxCell>
        <mxCell id="eRbQ8-fx1asFBcGVNISz-13" value="&amp;lt;&amp;lt;include&amp;gt;&amp;gt;" style="html=1;verticalAlign=bottom;labelBackgroundColor=none;endArrow=open;endFill=0;dashed=1;rounded=0;" edge="1" parent="1" source="eRbQ8-fx1asFBcGVNISz-3" target="eRbQ8-fx1asFBcGVNISz-4">
          <mxGeometry width="160" relative="1" as="geometry">
            <mxPoint x="480" y="225" as="sourcePoint" />
            <mxPoint x="740" y="225" as="targetPoint" />
          </mxGeometry>
        </mxCell>
        <mxCell id="eRbQ8-fx1asFBcGVNISz-15" value="&amp;lt;&amp;lt;extend&amp;gt;&amp;gt;" style="html=1;verticalAlign=bottom;labelBackgroundColor=none;endArrow=open;endFill=0;dashed=1;rounded=0;" edge="1" parent="1" target="eRbQ8-fx1asFBcGVNISz-5">
          <mxGeometry width="160" relative="1" as="geometry">
            <mxPoint x="430" y="90" as="sourcePoint" />
            <mxPoint x="570" y="90" as="targetPoint" />
          </mxGeometry>
        </mxCell>
        <mxCell id="eRbQ8-fx1asFBcGVNISz-18" value="&amp;lt;&amp;lt;extend&amp;gt;&amp;gt;" style="html=1;verticalAlign=bottom;labelBackgroundColor=none;endArrow=open;endFill=0;dashed=1;rounded=0;" edge="1" parent="1" source="eRbQ8-fx1asFBcGVNISz-5" target="eRbQ8-fx1asFBcGVNISz-6">
          <mxGeometry width="160" relative="1" as="geometry">
            <mxPoint x="680" y="80" as="sourcePoint" />
            <mxPoint x="840" y="80" as="targetPoint" />
            <mxPoint as="offset" />
          </mxGeometry>
        </mxCell>
        <mxCell id="eRbQ8-fx1asFBcGVNISz-19" value="&amp;lt;&amp;lt;extend&amp;gt;&amp;gt;" style="html=1;verticalAlign=bottom;labelBackgroundColor=none;endArrow=open;endFill=0;dashed=1;rounded=0;" edge="1" parent="1" target="eRbQ8-fx1asFBcGVNISz-7">
          <mxGeometry width="160" relative="1" as="geometry">
            <mxPoint x="890" y="110" as="sourcePoint" />
            <mxPoint x="1050" y="110" as="targetPoint" />
          </mxGeometry>
        </mxCell>
        <mxCell id="eRbQ8-fx1asFBcGVNISz-20" value="EXCLUIR PRODUTO" style="ellipse;whiteSpace=wrap;html=1;fillColor=#f5f5f5;fontColor=#333333;strokeColor=#666666;" vertex="1" parent="1">
          <mxGeometry x="1020" y="370" width="140" height="70" as="geometry" />
        </mxCell>
        <mxCell id="eRbQ8-fx1asFBcGVNISz-21" value="ATUALIZAR PRODUTO JÁ REGISTRADOS" style="ellipse;whiteSpace=wrap;html=1;fillColor=#f5f5f5;fontColor=#333333;strokeColor=#666666;" vertex="1" parent="1">
          <mxGeometry x="1060" y="70" width="140" height="70" as="geometry" />
        </mxCell>
        <mxCell id="eRbQ8-fx1asFBcGVNISz-22" value="&amp;lt;&amp;lt;extend&amp;gt;&amp;gt;" style="html=1;verticalAlign=bottom;labelBackgroundColor=none;endArrow=open;endFill=0;dashed=1;rounded=0;exitX=0.95;exitY=0.329;exitDx=0;exitDy=0;exitPerimeter=0;" edge="1" parent="1" source="eRbQ8-fx1asFBcGVNISz-7" target="eRbQ8-fx1asFBcGVNISz-21">
          <mxGeometry width="160" relative="1" as="geometry">
            <mxPoint x="860" y="220" as="sourcePoint" />
            <mxPoint x="700" y="310" as="targetPoint" />
          </mxGeometry>
        </mxCell>
        <mxCell id="eRbQ8-fx1asFBcGVNISz-23" value="&amp;lt;&amp;lt;extend&amp;gt;&amp;gt;" style="html=1;verticalAlign=bottom;labelBackgroundColor=none;endArrow=open;endFill=0;dashed=1;rounded=0;exitX=0.771;exitY=0.929;exitDx=0;exitDy=0;exitPerimeter=0;" edge="1" parent="1" source="eRbQ8-fx1asFBcGVNISz-7" target="eRbQ8-fx1asFBcGVNISz-20">
          <mxGeometry width="160" relative="1" as="geometry">
            <mxPoint x="770" y="450" as="sourcePoint" />
            <mxPoint x="930" y="450" as="targetPoint" />
          </mxGeometry>
        </mxCell>
        <mxCell id="eRbQ8-fx1asFBcGVNISz-24" value="SECAO DE CADA CATEGORIA DOS PRODUTOS&amp;nbsp;" style="ellipse;whiteSpace=wrap;html=1;fillColor=#f5f5f5;fontColor=#333333;strokeColor=#666666;" vertex="1" parent="1">
          <mxGeometry x="1070" y="190" width="140" height="70" as="geometry" />
        </mxCell>
        <mxCell id="eRbQ8-fx1asFBcGVNISz-25" value="&amp;lt;&amp;lt;extend&amp;gt;&amp;gt;" style="html=1;verticalAlign=bottom;labelBackgroundColor=none;endArrow=open;endFill=0;dashed=1;rounded=0;" edge="1" parent="1" target="eRbQ8-fx1asFBcGVNISz-24">
          <mxGeometry width="160" relative="1" as="geometry">
            <mxPoint x="870" y="220" as="sourcePoint" />
            <mxPoint x="1084" y="136" as="targetPoint" />
          </mxGeometry>
        </mxCell>
        <mxCell id="eRbQ8-fx1asFBcGVNISz-54" value="" style="edgeStyle=orthogonalEdgeStyle;rounded=0;orthogonalLoop=1;jettySize=auto;html=1;" edge="1" parent="1" source="eRbQ8-fx1asFBcGVNISz-26" target="eRbQ8-fx1asFBcGVNISz-24">
          <mxGeometry relative="1" as="geometry" />
        </mxCell>
        <mxCell id="eRbQ8-fx1asFBcGVNISz-26" value="LISTA DE PRODUTOS COM CATEGORIA SELECIONADA" style="ellipse;whiteSpace=wrap;html=1;" vertex="1" parent="1">
          <mxGeometry x="1320" y="190" width="140" height="70" as="geometry" />
        </mxCell>
        <mxCell id="eRbQ8-fx1asFBcGVNISz-27" value="&amp;lt;&amp;lt;extend&amp;gt;&amp;gt;" style="html=1;verticalAlign=bottom;labelBackgroundColor=none;endArrow=open;endFill=0;dashed=1;rounded=0;" edge="1" parent="1">
          <mxGeometry width="160" relative="1" as="geometry">
            <mxPoint x="1190" y="230" as="sourcePoint" />
            <mxPoint x="1360" y="230" as="targetPoint" />
          </mxGeometry>
        </mxCell>
        <mxCell id="eRbQ8-fx1asFBcGVNISz-28" value="ATUALIZAR PRODUTO JÁ REGISTRADOS" style="ellipse;whiteSpace=wrap;html=1;" vertex="1" parent="1">
          <mxGeometry x="1490" y="80" width="140" height="70" as="geometry" />
        </mxCell>
        <mxCell id="eRbQ8-fx1asFBcGVNISz-29" value="EXCLUIR PRODUTO" style="ellipse;whiteSpace=wrap;html=1;" vertex="1" parent="1">
          <mxGeometry x="1470" y="330" width="140" height="70" as="geometry" />
        </mxCell>
        <mxCell id="eRbQ8-fx1asFBcGVNISz-30" value="&amp;lt;&amp;lt;extend&amp;gt;&amp;gt;" style="html=1;verticalAlign=bottom;labelBackgroundColor=none;endArrow=open;endFill=0;dashed=1;rounded=0;" edge="1" parent="1" source="eRbQ8-fx1asFBcGVNISz-26" target="eRbQ8-fx1asFBcGVNISz-29">
          <mxGeometry width="160" relative="1" as="geometry">
            <mxPoint x="1200" y="240" as="sourcePoint" />
            <mxPoint x="1370" y="240" as="targetPoint" />
          </mxGeometry>
        </mxCell>
        <mxCell id="eRbQ8-fx1asFBcGVNISz-31" value="&amp;lt;&amp;lt;extend&amp;gt;&amp;gt;" style="html=1;verticalAlign=bottom;labelBackgroundColor=none;endArrow=open;endFill=0;dashed=1;rounded=0;exitX=0.936;exitY=0.3;exitDx=0;exitDy=0;exitPerimeter=0;" edge="1" parent="1" source="eRbQ8-fx1asFBcGVNISz-26" target="eRbQ8-fx1asFBcGVNISz-28">
          <mxGeometry width="160" relative="1" as="geometry">
            <mxPoint x="1433" y="266" as="sourcePoint" />
            <mxPoint x="1517" y="344" as="targetPoint" />
            <Array as="points">
              <mxPoint x="1550" y="140" />
            </Array>
          </mxGeometry>
        </mxCell>
        <mxCell id="eRbQ8-fx1asFBcGVNISz-32" value="ALTERAR DADOS DO PRODUTO SELECIONADO&amp;nbsp;" style="ellipse;whiteSpace=wrap;html=1;" vertex="1" parent="1">
          <mxGeometry x="1280" y="20" width="140" height="70" as="geometry" />
        </mxCell>
        <mxCell id="eRbQ8-fx1asFBcGVNISz-33" value="&amp;lt;&amp;lt;extend&amp;gt;&amp;gt;" style="html=1;verticalAlign=bottom;labelBackgroundColor=none;endArrow=open;endFill=0;dashed=1;rounded=0;" edge="1" parent="1" source="eRbQ8-fx1asFBcGVNISz-21" target="eRbQ8-fx1asFBcGVNISz-32">
          <mxGeometry width="160" relative="1" as="geometry">
            <mxPoint x="873" y="213" as="sourcePoint" />
            <mxPoint x="1083" y="136" as="targetPoint" />
          </mxGeometry>
        </mxCell>
        <mxCell id="eRbQ8-fx1asFBcGVNISz-34" value="CONFIRMAR ALTERACAO&lt;br&gt;" style="ellipse;whiteSpace=wrap;html=1;" vertex="1" parent="1">
          <mxGeometry x="1240" y="-280" width="140" height="70" as="geometry" />
        </mxCell>
        <mxCell id="eRbQ8-fx1asFBcGVNISz-35" value="&amp;lt;&amp;lt;extend&amp;gt;&amp;gt;" style="html=1;verticalAlign=bottom;labelBackgroundColor=none;endArrow=open;endFill=0;dashed=1;rounded=0;exitX=0.5;exitY=0;exitDx=0;exitDy=0;" edge="1" parent="1" source="eRbQ8-fx1asFBcGVNISz-32" target="eRbQ8-fx1asFBcGVNISz-46">
          <mxGeometry width="160" relative="1" as="geometry">
            <mxPoint x="1204" y="100" as="sourcePoint" />
            <mxPoint x="1296" y="79" as="targetPoint" />
          </mxGeometry>
        </mxCell>
        <mxCell id="eRbQ8-fx1asFBcGVNISz-36" value="VOLTAR&amp;nbsp; PARA PAGINA&amp;nbsp; DOS LISTA DE ESTOQUE REGISTRADO" style="ellipse;whiteSpace=wrap;html=1;" vertex="1" parent="1">
          <mxGeometry x="930" y="-310" width="180" height="90" as="geometry" />
        </mxCell>
        <mxCell id="eRbQ8-fx1asFBcGVNISz-37" value="&amp;lt;&amp;lt;extend&amp;gt;&amp;gt;" style="html=1;verticalAlign=bottom;labelBackgroundColor=none;endArrow=open;endFill=0;dashed=1;rounded=0;" edge="1" parent="1" source="eRbQ8-fx1asFBcGVNISz-36" target="eRbQ8-fx1asFBcGVNISz-34">
          <mxGeometry width="160" relative="1" as="geometry">
            <mxPoint x="1360" y="30" as="sourcePoint" />
            <mxPoint x="1180" y="-170" as="targetPoint" />
          </mxGeometry>
        </mxCell>
        <mxCell id="eRbQ8-fx1asFBcGVNISz-38" value="CONFIRMAR SENHA DO ADMINISTRADOR&amp;nbsp;" style="ellipse;whiteSpace=wrap;html=1;" vertex="1" parent="1">
          <mxGeometry x="1190" y="500" width="140" height="70" as="geometry" />
        </mxCell>
        <mxCell id="eRbQ8-fx1asFBcGVNISz-39" value="&amp;lt;&amp;lt;extend&amp;gt;&amp;gt;" style="html=1;verticalAlign=bottom;labelBackgroundColor=none;endArrow=open;endFill=0;dashed=1;rounded=0;" edge="1" parent="1" target="eRbQ8-fx1asFBcGVNISz-38">
          <mxGeometry width="160" relative="1" as="geometry">
            <mxPoint x="1135" y="427" as="sourcePoint" />
            <mxPoint x="1230" y="510" as="targetPoint" />
          </mxGeometry>
        </mxCell>
        <mxCell id="eRbQ8-fx1asFBcGVNISz-40" value="CONFIRMAR EXLCUIR PRODUTO&amp;nbsp;&lt;br&gt;" style="ellipse;whiteSpace=wrap;html=1;" vertex="1" parent="1">
          <mxGeometry x="1260" y="680" width="140" height="70" as="geometry" />
        </mxCell>
        <mxCell id="eRbQ8-fx1asFBcGVNISz-42" value="&amp;lt;&amp;lt;extend&amp;gt;&amp;gt;" style="html=1;verticalAlign=bottom;labelBackgroundColor=none;endArrow=open;endFill=0;dashed=1;rounded=0;exitX=0.5;exitY=0;exitDx=0;exitDy=0;" edge="1" parent="1" source="eRbQ8-fx1asFBcGVNISz-40" target="eRbQ8-fx1asFBcGVNISz-38">
          <mxGeometry width="160" relative="1" as="geometry">
            <mxPoint x="1350" y="450" as="sourcePoint" />
            <mxPoint x="1320" y="450" as="targetPoint" />
          </mxGeometry>
        </mxCell>
        <mxCell id="eRbQ8-fx1asFBcGVNISz-43" value="VOLTAR PARA PAGINA DE LISTA DE ESTOQUE REGISTRADOS" style="ellipse;whiteSpace=wrap;html=1;" vertex="1" parent="1">
          <mxGeometry x="1090" y="810" width="200" height="90" as="geometry" />
        </mxCell>
        <mxCell id="eRbQ8-fx1asFBcGVNISz-45" value="&amp;lt;&amp;lt;extend&amp;gt;&amp;gt;" style="html=1;verticalAlign=bottom;labelBackgroundColor=none;endArrow=open;endFill=0;dashed=1;rounded=0;" edge="1" parent="1" source="eRbQ8-fx1asFBcGVNISz-43" target="eRbQ8-fx1asFBcGVNISz-40">
          <mxGeometry width="160" relative="1" as="geometry">
            <mxPoint x="1340" y="690" as="sourcePoint" />
            <mxPoint x="1286" y="579" as="targetPoint" />
          </mxGeometry>
        </mxCell>
        <mxCell id="eRbQ8-fx1asFBcGVNISz-46" value="CONFIRMAR SENHA DO ADMINISTRADOR&amp;nbsp;" style="ellipse;whiteSpace=wrap;html=1;" vertex="1" parent="1">
          <mxGeometry x="1300" y="-160" width="140" height="70" as="geometry" />
        </mxCell>
        <mxCell id="eRbQ8-fx1asFBcGVNISz-47" value="&amp;lt;&amp;lt;extend&amp;gt;&amp;gt;" style="html=1;verticalAlign=bottom;labelBackgroundColor=none;endArrow=open;endFill=0;dashed=1;rounded=0;" edge="1" parent="1" source="eRbQ8-fx1asFBcGVNISz-46" target="eRbQ8-fx1asFBcGVNISz-34">
          <mxGeometry width="160" relative="1" as="geometry">
            <mxPoint x="1360" y="30" as="sourcePoint" />
            <mxPoint x="1375" y="-80" as="targetPoint" />
          </mxGeometry>
        </mxCell>
        <mxCell id="eRbQ8-fx1asFBcGVNISz-50" value="&amp;lt;&amp;lt;extend&amp;gt;&amp;gt;" style="html=1;verticalAlign=bottom;labelBackgroundColor=none;endArrow=open;endFill=0;dashed=1;rounded=0;entryX=1;entryY=0;entryDx=0;entryDy=0;" edge="1" parent="1" source="eRbQ8-fx1asFBcGVNISz-36" target="eRbQ8-fx1asFBcGVNISz-7">
          <mxGeometry width="160" relative="1" as="geometry">
            <mxPoint x="1119" y="-249" as="sourcePoint" />
            <mxPoint x="880" y="190" as="targetPoint" />
            <Array as="points">
              <mxPoint x="1140" y="-70" />
              <mxPoint x="1010" y="100" />
            </Array>
          </mxGeometry>
        </mxCell>
        <mxCell id="eRbQ8-fx1asFBcGVNISz-55" value="&amp;lt;&amp;lt;extend&amp;gt;&amp;gt;" style="html=1;verticalAlign=bottom;labelBackgroundColor=none;endArrow=open;endFill=0;dashed=1;rounded=0;exitX=1;exitY=1;exitDx=0;exitDy=0;entryX=0.5;entryY=0;entryDx=0;entryDy=0;" edge="1" parent="1" source="eRbQ8-fx1asFBcGVNISz-32" target="eRbQ8-fx1asFBcGVNISz-28">
          <mxGeometry width="160" relative="1" as="geometry">
            <mxPoint x="1420" y="10" as="sourcePoint" />
            <mxPoint x="1590" y="10" as="targetPoint" />
          </mxGeometry>
        </mxCell>
        <mxCell id="eRbQ8-fx1asFBcGVNISz-56" value="&amp;lt;&amp;lt;extend&amp;gt;&amp;gt;" style="html=1;verticalAlign=bottom;labelBackgroundColor=none;endArrow=open;endFill=0;dashed=1;rounded=0;" edge="1" parent="1" source="eRbQ8-fx1asFBcGVNISz-29" target="eRbQ8-fx1asFBcGVNISz-38">
          <mxGeometry width="160" relative="1" as="geometry">
            <mxPoint x="1433" y="266" as="sourcePoint" />
            <mxPoint x="1517" y="344" as="targetPoint" />
          </mxGeometry>
        </mxCell>
        <mxCell id="eRbQ8-fx1asFBcGVNISz-61" value="SECAO DOS RELATORIOS DOS PRODUTOS&lt;br&gt;" style="ellipse;whiteSpace=wrap;html=1;fillColor=#f5f5f5;fontColor=#333333;strokeColor=#666666;" vertex="1" parent="1">
          <mxGeometry x="640" y="290" width="140" height="70" as="geometry" />
        </mxCell>
        <mxCell id="eRbQ8-fx1asFBcGVNISz-62" value="&amp;lt;&amp;lt;extend&amp;gt;&amp;gt;" style="html=1;verticalAlign=bottom;labelBackgroundColor=none;endArrow=open;endFill=0;dashed=1;rounded=0;exitX=0.5;exitY=1;exitDx=0;exitDy=0;entryX=1;entryY=0;entryDx=0;entryDy=0;" edge="1" parent="1" source="eRbQ8-fx1asFBcGVNISz-7" target="eRbQ8-fx1asFBcGVNISz-61">
          <mxGeometry width="160" relative="1" as="geometry">
            <mxPoint x="880" y="230" as="sourcePoint" />
            <mxPoint x="1080" y="234" as="targetPoint" />
          </mxGeometry>
        </mxCell>
        <mxCell id="eRbQ8-fx1asFBcGVNISz-63" value="SELECIONAR QUAL PERIODO DO MES PARA GERAR RELATORIO&lt;br&gt;" style="ellipse;whiteSpace=wrap;html=1;" vertex="1" parent="1">
          <mxGeometry x="490" y="430" width="200" height="90" as="geometry" />
        </mxCell>
        <mxCell id="eRbQ8-fx1asFBcGVNISz-64" value="&amp;lt;&amp;lt;extend&amp;gt;&amp;gt;" style="html=1;verticalAlign=bottom;labelBackgroundColor=none;endArrow=open;endFill=0;dashed=1;rounded=0;" edge="1" parent="1" source="eRbQ8-fx1asFBcGVNISz-61" target="eRbQ8-fx1asFBcGVNISz-63">
          <mxGeometry width="160" relative="1" as="geometry">
            <mxPoint x="848" y="255" as="sourcePoint" />
            <mxPoint x="1057" y="388" as="targetPoint" />
          </mxGeometry>
        </mxCell>
        <mxCell id="eRbQ8-fx1asFBcGVNISz-65" value="DOWNLOAD DO RELATORIO EM PDF &lt;br&gt;ou ENVIAR PELO EMAIL DA EMPRESA&lt;br&gt;&lt;br&gt;&amp;nbsp;" style="ellipse;whiteSpace=wrap;html=1;" vertex="1" parent="1">
          <mxGeometry x="790" y="590" width="250" height="90" as="geometry" />
        </mxCell>
        <mxCell id="eRbQ8-fx1asFBcGVNISz-66" value="&amp;lt;&amp;lt;extend&amp;gt;&amp;gt;" style="html=1;verticalAlign=bottom;labelBackgroundColor=none;endArrow=open;endFill=0;dashed=1;rounded=0;entryX=1;entryY=0;entryDx=0;entryDy=0;" edge="1" parent="1" source="eRbQ8-fx1asFBcGVNISz-63" target="eRbQ8-fx1asFBcGVNISz-70">
          <mxGeometry width="160" relative="1" as="geometry">
            <mxPoint x="694" y="368" as="sourcePoint" />
            <mxPoint x="634" y="443" as="targetPoint" />
          </mxGeometry>
        </mxCell>
        <mxCell id="eRbQ8-fx1asFBcGVNISz-69" value="&amp;lt;&amp;lt;extend&amp;gt;&amp;gt;" style="html=1;verticalAlign=bottom;labelBackgroundColor=none;endArrow=open;endFill=0;dashed=1;rounded=0;" edge="1" parent="1" source="eRbQ8-fx1asFBcGVNISz-70" target="eRbQ8-fx1asFBcGVNISz-71">
          <mxGeometry width="160" relative="1" as="geometry">
            <mxPoint x="790" y="520" as="sourcePoint" />
            <mxPoint x="1057" y="388" as="targetPoint" />
          </mxGeometry>
        </mxCell>
        <mxCell id="eRbQ8-fx1asFBcGVNISz-70" value="MOSTRAR DADOS DO RELATORIO&lt;br&gt;" style="ellipse;whiteSpace=wrap;html=1;" vertex="1" parent="1">
          <mxGeometry x="380" y="585" width="200" height="90" as="geometry" />
        </mxCell>
        <mxCell id="eRbQ8-fx1asFBcGVNISz-71" value="VOLTAR PARA PAGINA DE&amp;nbsp;&lt;br&gt;LISTA DOS ESTOQUE&lt;br&gt;REGISTRADOS" style="ellipse;whiteSpace=wrap;html=1;" vertex="1" parent="1">
          <mxGeometry x="420" y="790" width="200" height="90" as="geometry" />
        </mxCell>
        <mxCell id="eRbQ8-fx1asFBcGVNISz-72" value="&amp;lt;&amp;lt;extend&amp;gt;&amp;gt;" style="html=1;verticalAlign=bottom;labelBackgroundColor=none;endArrow=open;endFill=0;dashed=1;rounded=0;" edge="1" parent="1" source="eRbQ8-fx1asFBcGVNISz-70" target="eRbQ8-fx1asFBcGVNISz-65">
          <mxGeometry width="160" relative="1" as="geometry">
            <mxPoint x="586" y="530" as="sourcePoint" />
            <mxPoint x="561" y="608" as="targetPoint" />
          </mxGeometry>
        </mxCell>
        <mxCell id="eRbQ8-fx1asFBcGVNISz-73" value="&amp;lt;&amp;lt;extend&amp;gt;&amp;gt;" style="html=1;verticalAlign=bottom;labelBackgroundColor=none;endArrow=open;endFill=0;dashed=1;rounded=0;entryX=0;entryY=1;entryDx=0;entryDy=0;" edge="1" parent="1" source="eRbQ8-fx1asFBcGVNISz-71" target="eRbQ8-fx1asFBcGVNISz-65">
          <mxGeometry width="160" relative="1" as="geometry">
            <mxPoint x="590" y="641" as="sourcePoint" />
            <mxPoint x="800" y="644" as="targetPoint" />
          </mxGeometry>
        </mxCell>
        <mxCell id="eRbQ8-fx1asFBcGVNISz-74" value="&amp;lt;&amp;lt;extend&amp;gt;&amp;gt;" style="html=1;verticalAlign=bottom;labelBackgroundColor=none;endArrow=open;endFill=0;dashed=1;rounded=0;" edge="1" parent="1" source="eRbQ8-fx1asFBcGVNISz-71">
          <mxGeometry width="160" relative="1" as="geometry">
            <mxPoint x="593" y="810" as="sourcePoint" />
            <mxPoint x="750" y="230" as="targetPoint" />
            <Array as="points">
              <mxPoint x="150" y="600" />
            </Array>
          </mxGeometry>
        </mxCell>
        <mxCell id="eRbQ8-fx1asFBcGVNISz-77" value="MOSTRAR HISTORICO&lt;br&gt;DA ALTERACOES ETC&lt;br&gt;LISTANDO NOME DO FUNCIONARIO" style="ellipse;whiteSpace=wrap;html=1;fillColor=#f5f5f5;fontColor=#333333;strokeColor=#666666;" vertex="1" parent="1">
          <mxGeometry x="790" y="390" width="190" height="100" as="geometry" />
        </mxCell>
        <mxCell id="eRbQ8-fx1asFBcGVNISz-78" value="&amp;lt;&amp;lt;extend&amp;gt;&amp;gt;" style="html=1;verticalAlign=bottom;labelBackgroundColor=none;endArrow=open;endFill=0;dashed=1;rounded=0;entryX=0.5;entryY=0;entryDx=0;entryDy=0;" edge="1" parent="1" source="eRbQ8-fx1asFBcGVNISz-7" target="eRbQ8-fx1asFBcGVNISz-77">
          <mxGeometry width="160" relative="1" as="geometry">
            <mxPoint x="848" y="255" as="sourcePoint" />
            <mxPoint x="1057" y="388" as="targetPoint" />
          </mxGeometry>
        </mxCell>
        <mxCell id="eRbQ8-fx1asFBcGVNISz-81" value="&amp;lt;&amp;lt;extend&amp;gt;&amp;gt;" style="html=1;verticalAlign=bottom;labelBackgroundColor=none;endArrow=open;endFill=0;dashed=1;rounded=0;entryX=1;entryY=1;entryDx=0;entryDy=0;exitX=0.947;exitY=0.731;exitDx=0;exitDy=0;exitPerimeter=0;" edge="1" parent="1" source="eRbQ8-fx1asFBcGVNISz-71" target="eRbQ8-fx1asFBcGVNISz-77">
          <mxGeometry width="160" relative="1" as="geometry">
            <mxPoint x="950" y="810" as="sourcePoint" />
            <mxPoint x="962" y="485" as="targetPoint" />
            <Array as="points">
              <mxPoint x="1130" y="750" />
              <mxPoint x="1200" y="600" />
            </Array>
          </mxGeometry>
        </mxCell>
        <mxCell id="eRbQ8-fx1asFBcGVNISz-89" value="" style="line;strokeWidth=1;fillColor=none;align=left;verticalAlign=middle;spacingTop=-1;spacingLeft=3;spacingRight=3;rotatable=0;labelPosition=right;points=[];portConstraint=eastwest;strokeColor=inherit;" vertex="1" parent="1">
          <mxGeometry x="60" y="370" width="130" height="8" as="geometry" />
        </mxCell>
        <mxCell id="eRbQ8-fx1asFBcGVNISz-90" value="&amp;lt;&amp;lt;extend&amp;gt;&amp;gt;" style="html=1;verticalAlign=bottom;labelBackgroundColor=none;endArrow=open;endFill=0;dashed=1;rounded=0;exitX=0.435;exitY=0.033;exitDx=0;exitDy=0;exitPerimeter=0;" edge="1" parent="1" source="eRbQ8-fx1asFBcGVNISz-43" target="eRbQ8-fx1asFBcGVNISz-7">
          <mxGeometry width="160" relative="1" as="geometry">
            <mxPoint x="1241" y="824" as="sourcePoint" />
            <mxPoint x="950" y="370" as="targetPoint" />
            <Array as="points">
              <mxPoint x="1220" y="720" />
              <mxPoint x="1280" y="640" />
              <mxPoint x="1030" y="450" />
            </Array>
          </mxGeometry>
        </mxCell>
      </root>
    </mxGraphModel>
  </diagram>
</mxfile>
